<svg width="20" height="28" viewBox="0 0 20 28" fill="none" xmlns="http://www.w3.org/2000/svg">
<path d="M11.6602 1.18175C11.2091 -0.35787 8.85114 -0.429554 8.33977 1.18175C5.68239 9.62129 0 11.9147 0 17.8629C0 23.1291 4.47273 27.39 10 27.39C15.5273 27.39 20 23.1291 20 17.8629C20 11.8847 14.3301 9.65981 11.6602 1.18175ZM10 23.9663C6.49148 23.9663 3.63636 21.2781 3.63636 17.9747C3.63636 17.5018 4.04318 17.1188 4.54545 17.1188C5.04773 17.1188 5.45455 17.5018 5.45455 17.9747C5.45455 20.3344 7.49375 22.2544 10 22.2544C10.5023 22.2544 10.9091 22.6374 10.9091 23.1103C10.9091 23.5832 10.5023 23.9663 10 23.9663Z" fill="white"/>
</svg>
