<svg viewBox="0 0 100 100" fill="none" xmlns="http://www.w3.org/2000/svg">
<path d="M46.6157 38.6018C46.6157 51.4744 36.1804 61.9097 23.3079 61.9097C10.4353 61.9097 0 51.4744 0 38.6018C0 25.7292 10.4353 15.2939 23.3079 15.2939C36.1804 15.2939 46.6157 25.7292 46.6157 38.6018Z" fill="#FFC200"/>
<path fill-rule="evenodd" clip-rule="evenodd" d="M23.3079 55.2503C32.5026 55.2503 39.9563 47.7965 39.9563 38.6018C39.9563 29.4071 32.5026 21.9533 23.3079 21.9533C14.1132 21.9533 6.65939 29.4071 6.65939 38.6018C6.65939 47.7965 14.1132 55.2503 23.3079 55.2503ZM23.3079 61.9097C36.1804 61.9097 46.6157 51.4744 46.6157 38.6018C46.6157 25.7292 36.1804 15.2939 23.3079 15.2939C10.4353 15.2939 0 25.7292 0 38.6018C0 51.4744 10.4353 61.9097 23.3079 61.9097Z" fill="black"/>
<path d="M78.4015 85.2161C78.5037 85.2175 78.606 85.2182 78.7085 85.2182C90.4073 85.2182 99.8911 76.0523 99.8911 64.7456C99.8911 53.4388 90.4073 44.2729 78.7085 44.2729C76.436 44.2729 74.247 44.6188 72.1949 45.259C71.3057 34.0839 61.6418 25.2837 49.8512 25.2837C37.4742 25.2837 27.4407 34.981 27.4407 46.9432C27.4407 48.3617 27.5818 49.7483 27.8511 51.0906C19.5809 52.5759 13.319 59.5859 13.319 68.0093C13.319 77.5135 21.2908 85.2182 31.1246 85.2182H78.4015V85.2161Z" fill="white"/>
<path fill-rule="evenodd" clip-rule="evenodd" d="M71.7422 78.4648L78.4928 78.5574C78.5648 78.5583 78.6367 78.5588 78.7085 78.5588C86.9452 78.5588 93.2317 72.1623 93.2317 64.7456C93.2317 57.3288 86.9452 50.9323 78.7085 50.9323C77.1146 50.9323 75.5941 51.1745 74.1784 51.6162L66.218 54.0998L65.5565 45.7873C64.9555 38.2348 58.3321 31.9431 49.8512 31.9431C40.9363 31.9431 34.1001 38.871 34.1001 46.9432C34.1001 47.9189 34.197 48.8667 34.3804 49.7806L35.7173 56.4438L29.0283 57.6451C23.7136 58.5996 19.9784 63.0257 19.9784 68.0093C19.9784 73.6235 24.7529 78.5588 31.1246 78.5588H71.7422V78.4648ZM78.4015 85.2182H31.1246C21.2908 85.2182 13.319 77.5135 13.319 68.0093C13.319 59.8345 19.2167 52.991 27.1242 51.2365C27.3647 51.1831 27.607 51.1344 27.8511 51.0906C27.7956 50.8138 27.7455 50.535 27.7009 50.2545C27.5296 49.1749 27.4407 48.0691 27.4407 46.9432C27.4407 34.981 37.4742 25.2837 49.8512 25.2837C59.2398 25.2837 67.2799 30.8636 70.6151 38.7792C71.4684 40.8044 72.0138 42.9824 72.1949 45.259C74.247 44.6188 76.436 44.2729 78.7085 44.2729C78.7367 44.2729 78.765 44.2729 78.7931 44.273C90.453 44.3171 99.8911 53.4661 99.8911 64.7456C99.8911 75.9532 90.5729 85.0574 79.0157 85.2161C78.9135 85.2175 78.8111 85.2182 78.7085 85.2182C78.606 85.2182 78.5037 85.2196 78.4015 85.2182Z" fill="black"/>
</svg>
