<svg width="21" height="24" viewBox="0 0 21 24" fill="none" xmlns="http://www.w3.org/2000/svg">
<g clip-path="url(#clip0_14_135)">
<path d="M20.6295 16.65L18.792 15.5719L20.3905 15.1359C20.7842 15.0281 21.0186 14.6156 20.9108 14.2172L20.7186 13.4906C20.6155 13.0922 20.2077 12.8531 19.8139 12.9609L16.078 13.9781L12.7124 12L16.0827 10.0219L19.8186 11.0391C20.2124 11.1469 20.6155 10.9078 20.7233 10.5094L20.9155 9.78281C21.0186 9.38437 20.7889 8.97188 20.3952 8.86406L18.7967 8.42813L20.6342 7.35C20.9858 7.14375 21.1077 6.68437 20.9061 6.32344L20.5358 5.67188C20.3342 5.31094 19.8795 5.18906 19.528 5.39531L17.6905 6.47344L18.117 4.84688C18.2202 4.44844 17.9905 4.03594 17.5967 3.92813L16.8842 3.73594C16.4905 3.62812 16.0874 3.86719 15.9795 4.26562L14.9811 8.0625L11.6108 10.0406V6.07969L14.3436 3.3C14.6295 3.00938 14.6295 2.53125 14.3436 2.24062L13.8233 1.71094C13.5374 1.42031 13.0686 1.42031 12.7827 1.71094L11.6155 2.90156V0.75C11.6155 0.3375 11.2874 0 10.8795 0H10.1436C9.73579 0 9.40767 0.3375 9.40767 0.75V2.91094L8.24048 1.72031C7.95454 1.42969 7.48579 1.42969 7.19985 1.72031L6.66079 2.25C6.37485 2.54063 6.37485 3.01875 6.66079 3.30937L9.3936 6.08906V10.05L6.02329 8.07187L5.02485 4.275C4.92173 3.87656 4.51392 3.6375 4.12017 3.74531L3.40767 3.9375C3.01392 4.04531 2.77954 4.45781 2.88735 4.85625L3.31392 6.48281L1.47642 5.40469C1.12485 5.19844 0.674853 5.32031 0.468603 5.68125L0.0982903 6.33281C-0.103272 6.69375 0.0139153 7.14844 0.370165 7.35938L2.20767 8.4375L0.609228 8.86406C0.215478 8.97188 -0.0188972 9.38437 0.0889153 9.78281L0.281103 10.5094C0.384228 10.9078 0.79204 11.1469 1.18579 11.0391L4.92173 10.0219L8.29204 12L4.92173 13.9781L1.18579 12.9609C0.79204 12.8531 0.388915 13.0922 0.281103 13.4906L0.0889153 14.2172C-0.0142097 14.6156 0.215478 15.0281 0.609228 15.1359L2.20767 15.5719L0.370165 16.65C0.0186028 16.8563 -0.103272 17.3156 0.0982903 17.6766L0.468603 18.3281C0.670165 18.6891 1.12485 18.8109 1.47642 18.6047L3.31392 17.5266L2.88735 19.1531C2.78423 19.5516 3.01392 19.9641 3.40767 20.0719L4.12017 20.2641C4.51392 20.3719 4.91704 20.1328 5.02485 19.7344L6.02329 15.9375L9.3936 13.9594V17.9203L6.66079 20.7C6.37485 20.9906 6.37485 21.4688 6.66079 21.7594L7.1811 22.2891C7.46704 22.5797 7.93579 22.5797 8.22173 22.2891L9.38892 21.0984V23.25C9.38892 23.6625 9.71704 24 10.1249 24H10.8608C11.2686 24 11.5967 23.6625 11.5967 23.25V21.0891L12.7639 22.2797C13.0499 22.5703 13.5186 22.5703 13.8045 22.2797L14.3249 21.75C14.6108 21.4594 14.6108 20.9812 14.3249 20.6906L11.592 17.9109V13.95L14.9624 15.9281L15.9608 19.725C16.0639 20.1234 16.4717 20.3625 16.8655 20.2547L17.578 20.0625C17.9717 19.9547 18.2061 19.5422 18.0983 19.1437L17.6717 17.5172L19.5092 18.5953C19.8608 18.8016 20.3108 18.6797 20.517 18.3187L20.8874 17.6672C21.103 17.3156 20.9858 16.8563 20.6295 16.65Z" fill="white"/>
</g>
<defs>
<clipPath id="clip0_14_135">
<rect width="21" height="24" fill="white"/>
</clipPath>
</defs>
</svg>
