<svg width="360" height="155" viewBox="0 0 360 155" fill="none" xmlns="http://www.w3.org/2000/svg">
<mask id="path-1-inside-1_14_130" fill="white">
<path d="M342.997 149C342.999 148.73 343 148.46 343 148.189C343 75.183 270.022 16 180 16C89.9776 16 17 75.183 17 148.189C17 148.46 17.001 148.73 17.003 149H342.997Z"/>
</mask>
<path d="M342.997 149C342.999 148.73 343 148.46 343 148.189C343 75.183 270.022 16 180 16C89.9776 16 17 75.183 17 148.189C17 148.46 17.001 148.73 17.003 149H342.997Z" fill="url(#paint0_linear_14_130)"/>
<path d="M342.997 149V150H343.99L343.997 149.007L342.997 149ZM17.003 149L16.003 149.007L16.0104 150H17.003V149ZM344 148.189C344 147.844 343.998 147.499 343.995 147.155L341.995 147.174C341.998 147.512 342 147.85 342 148.189H344ZM343.417 136.882C343.347 136.2 343.27 135.52 343.187 134.841L341.202 135.085C341.283 135.751 341.359 136.419 341.428 137.088L343.417 136.882ZM341.458 124.698C341.311 124.027 341.158 123.359 340.999 122.692L339.054 123.157C339.21 123.811 339.36 124.468 339.504 125.126L341.458 124.698ZM338.153 112.81C337.933 112.16 337.707 111.512 337.476 110.867L335.593 111.542C335.82 112.176 336.042 112.813 336.258 113.451L338.153 112.81ZM333.576 101.353C333.288 100.731 332.995 100.112 332.697 99.4947L330.896 100.366C331.19 100.972 331.478 101.581 331.76 102.192L333.576 101.353ZM327.827 90.4382C327.479 89.8504 327.125 89.265 326.766 88.6821L325.063 89.7308C325.416 90.3044 325.764 90.8804 326.107 91.4587L327.827 90.4382ZM321.027 80.1579C320.622 79.6055 320.213 79.0557 319.798 78.5085L318.204 79.7159C318.612 80.2548 319.015 80.7962 319.414 81.3401L321.027 80.1579ZM313.292 70.5672C312.838 70.0539 312.379 69.5433 311.917 69.0356L310.438 70.3826C310.895 70.8831 311.346 71.3863 311.794 71.8922L313.292 70.5672ZM304.734 61.7047C304.239 61.2339 303.74 60.7658 303.236 60.3007L301.879 61.7696C302.375 62.2284 302.868 62.69 303.357 63.1544L304.734 61.7047ZM295.46 53.5943C294.929 53.167 294.395 52.7426 293.857 52.3212L292.623 53.8956C293.154 54.3115 293.682 54.7304 294.206 55.1522L295.46 53.5943ZM285.576 46.2589C285.011 45.8726 284.443 45.4893 283.872 45.109L282.764 46.7742C283.328 47.1497 283.889 47.5283 284.447 47.9099L285.576 46.2589ZM275.165 39.6992C274.574 39.3565 273.979 39.0169 273.382 38.6804L272.4 40.4229C272.99 40.7554 273.578 41.091 274.162 41.4297L275.165 39.6992ZM264.297 33.9139C263.685 33.6155 263.07 33.3203 262.453 33.0283L261.598 34.8361C262.208 35.1248 262.816 35.4167 263.421 35.7116L264.297 33.9139ZM253.062 28.9114C252.427 28.6544 251.789 28.4006 251.149 28.1501L250.42 30.0124C251.053 30.2601 251.683 30.5111 252.311 30.7653L253.062 28.9114ZM241.51 24.6828C240.862 24.4698 240.212 24.26 239.56 24.0536L238.957 25.9603C239.602 26.1645 240.245 26.372 240.886 26.5828L241.51 24.6828ZM229.702 21.225C229.042 21.0546 228.379 20.8875 227.715 20.7237L227.236 22.6655C227.893 22.8276 228.549 22.993 229.203 23.1616L229.702 21.225ZM217.708 18.5367C217.037 18.4086 216.365 18.2838 215.691 18.1624L215.337 20.1307C216.003 20.2509 216.669 20.3744 217.332 20.5012L217.708 18.5367ZM205.555 16.6071C204.88 16.5213 204.202 16.4388 203.524 16.3597L203.292 18.3462C203.964 18.4245 204.634 18.5062 205.303 18.5912L205.555 16.6071ZM193.324 15.4331C192.643 15.3887 191.96 15.3476 191.277 15.3099L191.167 17.3069C191.844 17.3442 192.519 17.3848 193.193 17.4289L193.324 15.4331ZM181.03 15.0026C180.687 15.0009 180.344 15 180 15V17C180.34 17 180.68 17.0008 181.02 17.0025L181.03 15.0026ZM180 15C179.656 15 179.313 15.0009 178.97 15.0026L178.98 17.0025C179.32 17.0008 179.66 17 180 17V15ZM168.723 15.3099C168.04 15.3476 167.357 15.3887 166.676 15.4331L166.807 17.4289C167.481 17.3848 168.156 17.3442 168.833 17.3069L168.723 15.3099ZM156.476 16.3596C155.798 16.4388 155.121 16.5213 154.445 16.6071L154.697 18.5912C155.366 18.5062 156.036 18.4245 156.708 18.3462L156.476 16.3596ZM144.309 18.1624C143.635 18.2838 142.963 18.4086 142.293 18.5367L142.668 20.5012C143.331 20.3744 143.997 20.2509 144.663 20.1307L144.309 18.1624ZM132.285 20.7237C131.621 20.8875 130.958 21.0546 130.298 21.225L130.797 23.1616C131.451 22.993 132.107 22.8276 132.764 22.6655L132.285 20.7237ZM120.44 24.0536C119.788 24.26 119.138 24.4698 118.49 24.6828L119.114 26.5828C119.755 26.372 120.398 26.1645 121.043 25.9603L120.44 24.0536ZM108.851 28.1501C108.211 28.4006 107.573 28.6544 106.938 28.9114L107.689 30.7653C108.317 30.5111 108.947 30.2601 109.58 30.0124L108.851 28.1501ZM97.5467 33.0283C96.9295 33.3203 96.3149 33.6155 95.7029 33.9139L96.5793 35.7116C97.1843 35.4166 97.7919 35.1248 98.4021 34.8361L97.5467 33.0283ZM86.618 38.6804C86.0208 39.0169 85.4265 39.3565 84.835 39.6992L85.8378 41.4296C86.4222 41.091 87.0095 40.7554 87.5997 40.4229L86.618 38.6804ZM76.1285 45.109C75.557 45.4893 74.9887 45.8726 74.4237 46.2589L75.5526 47.9099C76.1107 47.5283 76.6719 47.1497 77.2364 46.7742L76.1285 45.109ZM66.1433 52.3212C65.6054 52.7426 65.0711 53.167 64.5403 53.5943L65.7945 55.1522C66.3184 54.7304 66.8458 54.3115 67.3767 53.8956L66.1433 52.3212ZM56.7638 60.3007C56.2605 60.7658 55.7611 61.2338 55.2656 61.7047L56.6434 63.1544C57.1321 62.69 57.6247 62.2284 58.1212 61.7696L56.7638 60.3007ZM48.0832 69.0355C47.6205 69.5433 47.1622 70.0539 46.7082 70.5672L48.2063 71.8922C48.6537 71.3863 49.1055 70.8831 49.5616 70.3826L48.0832 69.0355ZM40.2016 78.5085C39.7872 79.0557 39.3776 79.6055 38.9728 80.1579L40.5859 81.3401C40.9846 80.7962 41.388 80.2548 41.796 79.7159L40.2016 78.5085ZM33.2343 88.6821C32.8753 89.265 32.5214 89.8504 32.1727 90.4382L33.8928 91.4587C34.2358 90.8804 34.584 90.3044 34.9373 89.7308L33.2343 88.6821ZM27.3034 99.4947C27.0049 100.112 26.7119 100.731 26.4244 101.353L28.2396 102.192C28.5222 101.581 28.8103 100.972 29.1038 100.366L27.3034 99.4947ZM22.5244 110.867C22.2929 111.512 22.0672 112.16 21.8474 112.81L23.7419 113.451C23.9578 112.812 24.1795 112.176 24.407 111.542L22.5244 110.867ZM19.0011 122.692C18.842 123.359 18.689 124.027 18.5422 124.698L20.4959 125.126C20.64 124.468 20.7902 123.811 20.9464 123.157L19.0011 122.692ZM16.8131 134.841C16.73 135.52 16.6531 136.2 16.5826 136.882L18.572 137.088C18.6412 136.419 18.7167 135.751 18.7983 135.085L16.8131 134.841ZM16.0048 147.155C16.0016 147.499 16 147.844 16 148.189H18C18 147.85 18.0016 147.512 18.0047 147.174L16.0048 147.155ZM16 148.189C16 148.212 16 148.234 16 148.257L18 148.256C18 148.234 18 148.211 18 148.189H16ZM16.0025 148.939C16.0027 148.962 16.0029 148.985 16.003 149.007L18.003 148.993C18.0028 148.97 18.0027 148.948 18.0025 148.926L16.0025 148.939ZM17.003 150H18.0092V148H17.003V150ZM28.0707 150H30.083V148H28.0707V150ZM40.1446 150H42.1569V148H40.1446V150ZM52.2184 150H54.2307V148H52.2184V150ZM64.2923 150H66.3046V148H64.2923V150ZM76.3661 150H78.3784V148H76.3661V150ZM88.44 150H90.4523V148H88.44V150ZM100.514 150H102.526V148H100.514V150ZM112.588 150H114.6V148H112.588V150ZM124.662 150H126.674V148H124.662V150ZM136.735 150H138.748V148H136.735V150ZM148.809 150H150.822V148H148.809V150ZM160.883 150H162.895V148H160.883V150ZM172.957 150H174.969V148H172.957V150ZM185.031 150H187.043V148H185.031V150ZM197.105 150H199.117V148H197.105V150ZM209.178 150H211.191V148H209.178V150ZM221.252 150H223.265V148H221.252V150ZM233.326 150H235.338V148H233.326V150ZM245.4 150H247.412V148H245.4V150ZM257.474 150H259.486V148H257.474V150ZM269.548 150H271.56V148H269.548V150ZM281.622 150H283.634V148H281.622V150ZM293.695 150H295.708V148H293.695V150ZM305.769 150H307.782V148H305.769V150ZM317.843 150H319.855V148H317.843V150ZM329.917 150H331.929V148H329.917V150ZM341.991 150H342.997V148H341.991V150ZM343.997 149.007C343.997 148.985 343.997 148.962 343.997 148.939L341.998 148.926C341.997 148.948 341.997 148.97 341.997 148.993L343.997 149.007ZM344 148.257C344 148.234 344 148.212 344 148.189H342C342 148.211 342 148.234 342 148.256L344 148.257ZM342.997 149V151H344.982L344.997 149.015L342.997 149ZM17.003 149L15.0031 149.015L15.0178 151H17.003V149ZM345 148.189C345 147.841 344.998 147.493 344.995 147.146L340.995 147.183C340.998 147.518 341 147.853 341 148.189H345ZM344.412 136.779C344.341 136.091 344.263 135.405 344.179 134.72L340.209 135.206C340.29 135.866 340.365 136.528 340.433 137.191L344.412 136.779ZM342.435 124.484C342.287 123.807 342.132 123.133 341.972 122.46L338.081 123.389C338.236 124.037 338.384 124.688 338.527 125.34L342.435 124.484ZM339.1 112.489C338.878 111.834 338.65 111.18 338.417 110.529L334.652 111.88C334.877 112.508 335.097 113.139 335.311 113.771L339.1 112.489ZM334.483 100.933C334.193 100.306 333.898 99.6815 333.597 99.0592L329.996 100.801C330.287 101.403 330.573 102.006 330.853 102.612L334.483 100.933ZM328.687 89.9279C328.336 89.3354 327.979 88.7453 327.617 88.1577L324.211 90.2551C324.562 90.8241 324.907 91.3953 325.247 91.9689L328.687 89.9279ZM321.834 79.5668C321.426 79.0101 321.013 78.4562 320.596 77.9048L317.407 80.3196C317.812 80.8543 318.212 81.3915 318.607 81.9312L321.834 79.5668ZM314.041 69.9047C313.584 69.3877 313.122 68.8735 312.656 68.362L309.699 71.0561C310.152 71.553 310.6 72.0525 311.045 72.5547L314.041 69.9047ZM305.423 60.9799C304.924 60.5058 304.422 60.0346 303.915 59.5663L301.2 62.504C301.693 62.9597 302.182 63.4181 302.668 63.8793L305.423 60.9799ZM296.087 52.8153C295.553 52.3853 295.015 51.9581 294.473 51.534L292.007 54.6828C292.534 55.096 293.058 55.5121 293.578 55.9311L296.087 52.8153ZM286.141 45.4335C285.572 45.0447 285 44.6591 284.425 44.2765L282.21 47.6067C282.771 47.9799 283.328 48.3562 283.883 48.7353L286.141 45.4335ZM275.666 38.834C275.071 38.4893 274.474 38.1476 273.873 37.8092L271.909 41.2941C272.496 41.6246 273.08 41.9582 273.661 42.2949L275.666 38.834ZM264.735 33.015C264.12 32.7149 263.502 32.418 262.881 32.1243L261.17 35.74C261.777 36.0271 262.381 36.3172 262.983 36.6105L264.735 33.015ZM253.437 27.9844C252.798 27.726 252.157 27.4708 251.514 27.2189L250.056 30.9436C250.685 31.1899 251.312 31.4395 251.936 31.6923L253.437 27.9844ZM241.823 23.7328C241.171 23.5187 240.518 23.3078 239.862 23.1002L238.655 26.9137C239.296 27.1168 239.936 27.3232 240.574 27.5328L241.823 23.7328ZM229.952 20.2567C229.288 20.0854 228.622 19.9174 227.954 19.7527L226.997 23.6365C227.651 23.7977 228.303 23.9622 228.953 24.1299L229.952 20.2567ZM217.895 17.5545C217.221 17.4257 216.546 17.3003 215.869 17.1783L215.159 21.1149C215.823 21.2344 216.484 21.3573 217.145 21.4834L217.895 17.5545ZM205.681 15.6151C205.002 15.5288 204.322 15.4459 203.64 15.3664L203.176 19.3395C203.845 19.4174 204.512 19.4986 205.177 19.5832L205.681 15.6151ZM193.389 14.4352C192.704 14.3906 192.019 14.3493 191.332 14.3114L191.112 18.3053C191.785 18.3425 192.457 18.3829 193.128 18.4267L193.389 14.4352ZM181.035 14.0026C180.69 14.0009 180.345 14 180 14V18C180.339 18 180.677 18.0008 181.015 18.0025L181.035 14.0026ZM180 14C179.655 14 179.31 14.0009 178.965 14.0026L178.985 18.0025C179.323 18.0008 179.661 18 180 18V14ZM168.668 14.3114C167.981 14.3493 167.296 14.3906 166.611 14.4352L166.872 18.4267C167.543 18.3829 168.215 18.3425 168.888 18.3053L168.668 14.3114ZM156.36 15.3664C155.678 15.4459 154.998 15.5288 154.319 15.6151L154.823 19.5832C155.488 19.4986 156.155 19.4174 156.824 19.3394L156.36 15.3664ZM144.131 17.1783C143.454 17.3003 142.779 17.4257 142.105 17.5545L142.855 21.4834C143.516 21.3573 144.177 21.2344 144.841 21.1149L144.131 17.1783ZM132.046 19.7527C131.378 19.9174 130.712 20.0854 130.048 20.2567L131.047 24.1299C131.697 23.9622 132.349 23.7977 133.003 23.6365L132.046 19.7527ZM120.138 23.1002C119.482 23.3078 118.829 23.5187 118.177 23.7328L119.426 27.5328C120.064 27.3232 120.704 27.1168 121.345 26.9137L120.138 23.1002ZM108.486 27.2189C107.843 27.4708 107.202 27.726 106.563 27.9844L108.064 31.6923C108.688 31.4395 109.315 31.1899 109.944 30.9436L108.486 27.2189ZM97.119 32.1243C96.4983 32.418 95.8802 32.7149 95.2647 33.015L97.0175 36.6105C97.619 36.3172 98.2232 36.0271 98.8298 35.74L97.119 32.1243ZM86.1271 37.8092C85.5264 38.1476 84.9286 38.4892 84.3336 38.834L86.3393 42.2949C86.9201 41.9582 87.5039 41.6246 88.0906 41.2941L86.1271 37.8092ZM75.5746 44.2765C74.9996 44.6591 74.4278 45.0447 73.8593 45.4335L76.1171 48.7353C76.6716 48.3562 77.2294 47.9799 77.7903 47.6067L75.5746 44.2765ZM65.5266 51.534C64.9852 51.9581 64.4474 52.3853 63.9132 52.8153L66.4216 55.9311C66.942 55.5121 67.466 55.096 67.9935 54.6827L65.5266 51.534ZM56.0851 59.5663C55.5784 60.0346 55.0756 60.5058 54.5767 60.9798L57.3323 63.8793C57.8176 63.4181 58.3068 62.9596 58.7999 62.504L56.0851 59.5663ZM47.3441 68.362C46.8781 68.8734 46.4164 69.3877 45.9591 69.9047L48.9554 72.5547C49.3995 72.0525 49.848 71.553 50.3007 71.0561L47.3441 68.362ZM39.4043 77.9048C38.9869 78.4562 38.5741 79.0101 38.1662 79.5668L41.3925 81.9312C41.7881 81.3915 42.1883 80.8543 42.5932 80.3196L39.4043 77.9048ZM32.3828 88.1577C32.0209 88.7453 31.6642 89.3354 31.3127 89.9279L34.7528 91.9689C35.0931 91.3953 35.4384 90.8241 35.7888 90.2551L32.3828 88.1577ZM26.4032 99.0592C26.1022 99.6815 25.8067 100.306 25.5168 100.933L29.1473 102.612C29.4274 102.006 29.713 101.403 30.004 100.801L26.4032 99.0592ZM21.5831 110.529C21.3496 111.18 21.1219 111.834 20.9001 112.489L24.6892 113.771C24.9031 113.139 25.1229 112.508 25.3483 111.88L21.5831 110.529ZM18.0284 122.46C17.8679 123.133 17.7135 123.807 17.5654 124.484L21.4727 125.34C21.6155 124.688 21.7643 124.037 21.9191 123.389L18.0284 122.46ZM15.8205 134.72C15.7366 135.405 15.6591 136.091 15.5879 136.779L19.5666 137.191C19.6352 136.528 19.71 135.866 19.7909 135.206L15.8205 134.72ZM15.0049 147.146C15.0016 147.493 15 147.841 15 148.189H19C19 147.853 19.0016 147.518 19.0047 147.183L15.0049 147.146ZM15 148.189C15 148.212 15 148.235 15 148.258L19 148.255C19 148.233 19 148.211 19 148.189H15ZM15.0026 148.946C15.0027 148.969 15.0029 148.992 15.0031 149.015L19.0029 148.985C19.0028 148.963 19.0026 148.941 19.0025 148.919L15.0026 148.946ZM17.003 151H18.0092V147H17.003V151ZM28.0707 151H30.083V147H28.0707V151ZM40.1446 151H42.1569V147H40.1446V151ZM52.2184 151H54.2307V147H52.2184V151ZM64.2923 151H66.3046V147H64.2923V151ZM76.3661 151H78.3784V147H76.3661V151ZM88.44 151H90.4523V147H88.44V151ZM100.514 151H102.526V147H100.514V151ZM112.588 151H114.6V147H112.588V151ZM124.662 151H126.674V147H124.662V151ZM136.735 151H138.748V147H136.735V151ZM148.809 151H150.822V147H148.809V151ZM160.883 151H162.895V147H160.883V151ZM172.957 151H174.969V147H172.957V151ZM185.031 151H187.043V147H185.031V151ZM197.105 151H199.117V147H197.105V151ZM209.178 151H211.191V147H209.178V151ZM221.252 151H223.265V147H221.252V151ZM233.326 151H235.338V147H233.326V151ZM245.4 151H247.412V147H245.4V151ZM257.474 151H259.486V147H257.474V151ZM269.548 151H271.56V147H269.548V151ZM281.622 151H283.634V147H281.622V151ZM293.695 151H295.708V147H293.695V151ZM305.769 151H307.782V147H305.769V151ZM317.843 151H319.855V147H317.843V151ZM329.917 151H331.929V147H329.917V151ZM341.991 151H342.997V147H341.991V151ZM344.997 149.015C344.997 148.992 344.997 148.969 344.997 148.946L340.998 148.919C340.997 148.941 340.997 148.963 340.997 148.985L344.997 149.015ZM345 148.258C345 148.235 345 148.212 345 148.189H341C341 148.211 341 148.233 341 148.255L345 148.258Z" fill="#888888" mask="url(#path-1-inside-1_14_130)"/>
<line y1="148" x2="360" y2="148" stroke="black" stroke-width="2"/>
<path d="M26 147C26 151.418 22.4183 155 18 155C13.5817 155 10 151.418 10 147C10 142.582 13.5817 139 18 139C22.4183 139 26 142.582 26 147Z" fill="#FFF084"/>
<path fill-rule="evenodd" clip-rule="evenodd" d="M18 153C21.3137 153 24 150.314 24 147C24 143.686 21.3137 141 18 141C14.6863 141 12 143.686 12 147C12 150.314 14.6863 153 18 153ZM18 155C22.4183 155 26 151.418 26 147C26 142.582 22.4183 139 18 139C13.5817 139 10 142.582 10 147C10 151.418 13.5817 155 18 155Z" fill="black"/>
<path d="M350 147C350 151.418 346.418 155 342 155C337.582 155 334 151.418 334 147C334 142.582 337.582 139 342 139C346.418 139 350 142.582 350 147Z" fill="#FE9B24"/>
<path fill-rule="evenodd" clip-rule="evenodd" d="M342 153C345.314 153 348 150.314 348 147C348 143.686 345.314 141 342 141C338.686 141 336 143.686 336 147C336 150.314 338.686 153 342 153ZM342 155C346.418 155 350 151.418 350 147C350 142.582 346.418 139 342 139C337.582 139 334 142.582 334 147C334 151.418 337.582 155 342 155Z" fill="black"/>
<path d="M196 16.5C196 25.6127 188.613 33 179.5 33C170.387 33 163 25.6127 163 16.5C163 7.3873 170.387 0 179.5 0C188.613 0 196 7.3873 196 16.5Z" fill="#FFE019"/>
<path fill-rule="evenodd" clip-rule="evenodd" d="M179.5 31C187.508 31 194 24.5081 194 16.5C194 8.49187 187.508 2 179.5 2C171.492 2 165 8.49187 165 16.5C165 24.5081 171.492 31 179.5 31ZM179.5 33C188.613 33 196 25.6127 196 16.5C196 7.3873 188.613 0 179.5 0C170.387 0 163 7.3873 163 16.5C163 25.6127 170.387 33 179.5 33Z" fill="black"/>
<defs>
<linearGradient id="paint0_linear_14_130" x1="170" y1="-77.6677" x2="176.578" y2="280.441" gradientUnits="userSpaceOnUse">
<stop stop-color="#FFC46C"/>
<stop offset="0.510515" stop-color="#FFC46C" stop-opacity="0"/>
</linearGradient>
</defs>
</svg>
