<svg width="25" height="25" viewBox="0 0 25 25" fill="none" xmlns="http://www.w3.org/2000/svg">
<g clip-path="url(#clip0_14_159)">
<path d="M7.65137 12.5001H0.78125C0.351562 12.5001 0 12.8517 0 13.2813V14.8438C0 15.2735 0.351562 15.6251 0.78125 15.6251H7.72461C8.50098 15.6251 9.22852 16.1573 9.35547 16.9239C9.5166 17.9005 8.76465 18.7501 7.8125 18.7501C7.12402 18.7501 6.53809 18.3009 6.32813 17.6808C6.22559 17.3731 5.9082 17.1876 5.58594 17.1876H3.98438C3.50586 17.1876 3.12012 17.6173 3.20801 18.086C3.62793 20.2393 5.53223 21.8751 7.80762 21.8751C10.5957 21.8751 12.8223 19.4288 12.4561 16.5724C12.1582 14.2091 10.0293 12.5001 7.65137 12.5001ZM0.78125 10.9376H17.1875C20.1025 10.9376 22.4023 8.26181 21.7676 5.23935C21.3965 3.47177 19.9658 2.04111 18.1982 1.67002C15.4932 1.10361 13.0664 2.88584 12.5879 5.35654C12.4951 5.82529 12.8857 6.25009 13.3594 6.25009H14.9609C15.2881 6.25009 15.6006 6.06455 15.7031 5.75693C15.9131 5.13681 16.499 4.68759 17.1875 4.68759C18.1348 4.68759 18.8916 5.5372 18.7305 6.51376C18.6035 7.28037 17.8809 7.81259 17.0996 7.81259H0.78125C0.351562 7.81259 0 8.16416 0 8.59384V10.1563C0 10.586 0.351562 10.9376 0.78125 10.9376ZM19.5312 12.5001H11.8994C12.8418 13.3106 13.5205 14.3946 13.8428 15.6251H19.5312C20.8252 15.6251 21.875 16.6749 21.875 17.9688C21.875 19.2628 20.8252 20.3126 19.5312 20.3126C18.6572 20.3126 17.9053 19.8292 17.5 19.1212C17.3584 18.877 17.0752 18.7501 16.792 18.7501H15.1416C14.6094 18.7501 14.2139 19.2774 14.3945 19.7804C15.2637 22.2511 17.8369 23.921 20.7129 23.3106C22.7246 22.8858 24.3799 21.2794 24.8486 19.2726C25.6836 15.6983 22.9736 12.5001 19.5312 12.5001Z" fill="white"/>
</g>
<defs>
<clipPath id="clip0_14_159">
<rect width="25" height="25" fill="white"/>
</clipPath>
</defs>
</svg>
